<svg width="24" height="24" viewBox="0 0 24 24" fill="none" xmlns="http://www.w3.org/2000/svg">
<path d="M14.0029 12.1315L13.9754 12.1855C13.5951 12.9353 13.0338 13.5823 12.3403 14.0701C11.6469 14.558 10.8424 14.8719 9.99707 14.9845" stroke="#545B63" stroke-linecap="round" stroke-linejoin="round"/>
<path d="M16.8308 16.5415H13.6683C13.0988 16.5415 12.6371 16.9948 12.6371 17.554C12.6371 18.1132 13.0988 18.5665 13.6683 18.5665H16.8308C17.4004 18.5665 17.8621 18.1132 17.8621 17.554C17.8621 16.9948 17.4004 16.5415 16.8308 16.5415Z" stroke="#545B63" stroke-linecap="round" stroke-linejoin="round"/>
<path d="M18.0362 14.089H13.572C12.8835 14.089 12.3254 14.637 12.3254 15.313V15.3175C12.3254 15.9935 12.8835 16.5415 13.572 16.5415H18.0362C18.7247 16.5415 19.2829 15.9935 19.2829 15.3175V15.313C19.2829 14.637 18.7247 14.089 18.0362 14.089Z" stroke="#545B63" stroke-linecap="round" stroke-linejoin="round"/>
<path d="M18.1187 11.803H13.4895C12.8466 11.803 12.3254 12.3147 12.3254 12.946V12.9505C12.3254 13.5818 12.8466 14.0935 13.4895 14.0935H18.1187C18.7617 14.0935 19.2829 13.5818 19.2829 12.9505V12.946C19.2829 12.3147 18.7617 11.803 18.1187 11.803Z" fill="white" stroke="#545B63" stroke-linecap="round" stroke-linejoin="round"/>
<path d="M16.9546 9.5125H13.8013C13.1583 9.5125 12.6371 10.0242 12.6371 10.6555V10.66C12.6371 11.2913 13.1583 11.803 13.8013 11.803H16.9546C17.5975 11.803 18.1188 11.2913 18.1188 10.66V10.6555C18.1188 10.0242 17.5975 9.5125 16.9546 9.5125Z" stroke="#545B63" stroke-linecap="round" stroke-linejoin="round"/>
<path d="M18.0362 14.089H18.1187C18.4275 14.089 18.7236 13.9686 18.9419 13.7542C19.1603 13.5399 19.2829 13.2491 19.2829 12.946C19.2829 12.6429 19.1603 12.3521 18.9419 12.1378C18.7236 11.9234 18.4275 11.803 18.1187 11.803H16.9546C17.2513 11.7847 17.5298 11.6561 17.7333 11.4434C17.9369 11.2306 18.0502 10.9497 18.0502 10.6578C18.0502 10.3659 17.9369 10.0849 17.7333 9.87215C17.5298 9.65939 17.2513 9.53078 16.9546 9.51251H14.1496C14.4154 8.86451 14.7546 7.84301 15.0662 6.87101C15.2122 6.39541 15.1606 5.88245 14.9227 5.44406C14.6849 5.00567 14.2801 4.67744 13.7967 4.53101C13.7341 4.51159 13.6682 4.50459 13.6028 4.51041C13.5375 4.51623 13.4739 4.53475 13.4159 4.5649C13.3579 4.59505 13.3066 4.63623 13.2649 4.68603C13.2233 4.73584 13.1922 4.79327 13.1733 4.85501C12.7792 6.17801 12.4858 7.84751 10.4233 9.35501C9.70823 9.90391 9.089 10.5636 8.59 11.308C8.42411 11.5399 8.20481 11.73 7.94995 11.8629C7.69509 11.9958 7.41187 12.0678 7.12333 12.073H5.48708C5.36552 12.073 5.24894 12.1204 5.16299 12.2048C5.07704 12.2892 5.02875 12.4037 5.02875 12.523V17.527C5.02875 17.6464 5.07704 17.7608 5.16299 17.8452C5.24894 17.9296 5.36552 17.977 5.48708 17.977H6.62833C8.13166 18.013 8.7825 18.5665 10.6571 18.5665H16.8308C17.1043 18.5665 17.3666 18.4598 17.56 18.27C17.7534 18.0801 17.8621 17.8225 17.8621 17.554C17.8621 17.2855 17.7534 17.0279 17.56 16.8381C17.3666 16.6482 17.1043 16.5415 16.8308 16.5415H18.0362C18.3544 16.5226 18.6532 16.3851 18.8717 16.1573C19.0902 15.9294 19.2118 15.6282 19.2118 15.3153C19.2118 15.0023 19.0902 14.7011 18.8717 14.4733C18.6532 14.2454 18.3544 14.1079 18.0362 14.089V14.089Z" stroke="#545B63" stroke-linecap="round" stroke-linejoin="round"/>
</svg>
